<svg width="378" height="389" viewBox="0 0 378 389" fill="none" xmlns="http://www.w3.org/2000/svg">
<path fill-rule="evenodd" clip-rule="evenodd" d="M188.729 235.781V112.677C192.052 111.274 195.435 109.797 198.901 108.283C214.639 101.41 232.081 93.7921 253.317 89.0733C258.604 87.8983 263.687 86.9563 268.572 86.2413C270.753 88.9677 274.462 96.7764 271.844 106.2C262.42 124.001 255.566 129.324 253.317 129.76V149.394H236.504L241.74 184.734L229.305 179.498C218.18 177.971 196.976 178.189 201.164 191.278C205.352 204.367 226.469 223.782 236.504 231.854H277.734C284.497 229.454 299.2 228.451 303.912 243.634C308.624 258.817 305.875 273.52 303.912 278.974L297.367 293.372C295.404 291.845 289.514 293.241 281.661 311.042C273.807 328.843 266.172 347.254 263.336 354.235L236.504 367.324C234.759 370.16 232.316 370.858 236.504 350.963C239.177 338.267 241.508 333.588 240.974 329.263C240.462 325.115 237.314 321.293 229.305 311.042C216.216 294.288 215.998 282.682 217.525 278.974V254.759L201.164 239.707L188.729 235.781ZM376.518 221.383C377.229 213.053 377.399 204.899 376.995 197.059C375.939 176.542 373.207 158.33 368.337 142.849L353.65 153.975C351.25 153.757 345.404 158.556 341.215 179.498C337.027 200.441 347.76 210.475 353.65 212.875L376.518 221.383Z" fill="#4FA661"/>
<path fill-rule="evenodd" clip-rule="evenodd" d="M188.729 235.781V112.677C192.052 111.274 195.435 109.797 198.901 108.283C214.639 101.41 232.081 93.7921 253.317 89.0733C258.604 87.8983 263.687 86.9563 268.572 86.2413C270.753 88.9677 274.462 96.7764 271.844 106.2C262.42 124.001 255.566 129.324 253.317 129.76V149.394H236.504L241.74 184.734L229.305 179.498C218.18 177.971 196.976 178.189 201.164 191.278C205.352 204.367 226.469 223.782 236.504 231.854H277.734C284.497 229.454 299.2 228.451 303.912 243.634C308.624 258.817 305.875 273.52 303.912 278.974L297.367 293.372C295.404 291.845 289.514 293.241 281.661 311.042C273.807 328.843 266.172 347.254 263.336 354.235L236.504 367.324C234.759 370.16 232.316 370.858 236.504 350.963C239.177 338.267 241.508 333.588 240.974 329.263C240.462 325.115 237.314 321.293 229.305 311.042C216.216 294.288 215.998 282.682 217.525 278.974V254.759L201.164 239.707L188.729 235.781ZM376.518 221.383C377.229 213.053 377.399 204.899 376.995 197.059C375.939 176.542 373.207 158.33 368.337 142.849L353.65 153.975C351.25 153.757 345.404 158.556 341.215 179.498C337.027 200.441 347.76 210.475 353.65 212.875L376.518 221.383Z" fill="#0068C8"/>
<path d="M188.729 375.686C206.574 383.715 226.353 388.17 247.171 388.17C318.495 388.17 370.032 297.438 376.518 221.383L353.65 212.875C347.76 210.475 337.027 200.441 341.215 179.498C345.404 158.556 351.25 153.757 353.65 153.975L368.337 142.849C354.829 99.9169 324.87 78.0006 268.572 86.2413C270.753 88.9677 274.462 96.7764 271.844 106.2C262.42 124.001 255.566 129.324 253.317 129.76V149.394H236.504L241.74 184.734L229.305 179.498C218.18 177.971 196.976 178.189 201.164 191.278C205.352 204.367 226.469 223.782 236.504 231.854H277.734C284.497 229.454 299.2 228.451 303.912 243.634C308.624 258.817 305.875 273.52 303.912 278.974L297.367 293.372C295.404 291.845 289.514 293.241 281.661 311.042C273.807 328.843 266.172 347.254 263.336 354.235L236.504 367.324C234.759 370.16 232.316 370.858 236.504 350.963C239.177 338.267 241.508 333.588 240.974 329.263C240.462 325.115 237.314 321.293 229.305 311.042C216.216 294.288 215.998 282.682 217.525 278.974V254.759L201.164 239.707L188.729 235.781V375.686Z" fill="#4FA661"/>
<path d="M188.729 375.686C206.574 383.715 226.353 388.17 247.171 388.17C318.495 388.17 370.032 297.438 376.518 221.383L353.65 212.875C347.76 210.475 337.027 200.441 341.215 179.498C345.404 158.556 351.25 153.757 353.65 153.975L368.337 142.849C354.829 99.9169 324.87 78.0006 268.572 86.2413C270.753 88.9677 274.462 96.7764 271.844 106.2C262.42 124.001 255.566 129.324 253.317 129.76V149.394H236.504L241.74 184.734L229.305 179.498C218.18 177.971 196.976 178.189 201.164 191.278C205.352 204.367 226.469 223.782 236.504 231.854H277.734C284.497 229.454 299.2 228.451 303.912 243.634C308.624 258.817 305.875 273.52 303.912 278.974L297.367 293.372C295.404 291.845 289.514 293.241 281.661 311.042C273.807 328.843 266.172 347.254 263.336 354.235L236.504 367.324C234.759 370.16 232.316 370.858 236.504 350.963C239.177 338.267 241.508 333.588 240.974 329.263C240.462 325.115 237.314 321.293 229.305 311.042C216.216 294.288 215.998 282.682 217.525 278.974V254.759L201.164 239.707L188.729 235.781V375.686Z" fill="#0068C8"/>
<path fill-rule="evenodd" clip-rule="evenodd" d="M188.729 235.856V112.752C192.052 111.35 195.435 109.872 198.901 108.359C214.639 101.485 232.081 93.8678 253.317 89.149C258.604 87.974 263.687 87.032 268.572 86.317C270.753 89.0433 274.462 96.8521 271.844 106.276C262.42 124.077 261.778 111.254 258.755 122.562C256.775 129.969 263.991 132.379 263.991 142.925C263.991 153.472 259.189 163.473 253.317 166.41C240.838 172.649 250.454 201.983 236.504 201.75C231.236 201.662 233.886 181.101 222.761 179.574C211.635 178.047 196.976 178.265 201.164 191.354C205.352 204.443 226.469 223.858 236.504 231.93C246.539 240.001 277.734 231.93 277.734 231.93C284.497 229.53 305.09 224.6 309.802 239.783C314.514 254.966 305.875 254.105 303.912 265.885C303.912 265.885 301.949 280.938 294.095 286.173C286.242 291.409 282.97 293.372 280.352 302.534C278.106 310.396 285.256 309.459 282.97 317.587C279.927 328.404 264.956 350.325 263.336 354.311C260.5 361.292 253.317 366.015 253.317 366.015C251.572 368.851 242.982 366.932 247.171 347.037C249.843 334.341 237.038 327.802 236.504 323.477C235.992 319.329 230.769 315.403 222.761 305.152C209.672 288.398 215.998 276.138 217.525 272.43C217.525 272.43 221.486 263.422 217.525 254.835C213.888 246.952 208.917 243.691 201.164 239.783C196.617 237.491 188.729 235.856 188.729 235.856ZM376.518 221.458C377.229 213.128 377.399 204.974 376.995 197.135C375.939 176.618 373.207 158.405 368.337 142.925L353.65 154.051C351.25 153.832 345.404 158.632 341.215 179.574C337.027 200.516 347.76 210.551 353.65 212.951L376.518 221.458Z" fill="#4FA661"/>
<path fill-rule="evenodd" clip-rule="evenodd" d="M188.729 235.856V112.752C192.052 111.35 195.435 109.872 198.901 108.359C214.639 101.485 232.081 93.8678 253.317 89.149C258.604 87.974 263.687 87.032 268.572 86.317C270.753 89.0433 274.462 96.8521 271.844 106.276C262.42 124.077 261.778 111.254 258.755 122.562C256.775 129.969 263.991 132.379 263.991 142.925C263.991 153.472 259.189 163.473 253.317 166.41C240.838 172.649 250.454 201.983 236.504 201.75C231.236 201.662 233.886 181.101 222.761 179.574C211.635 178.047 196.976 178.265 201.164 191.354C205.352 204.443 226.469 223.858 236.504 231.93C246.539 240.001 277.734 231.93 277.734 231.93C284.497 229.53 305.09 224.6 309.802 239.783C314.514 254.966 305.875 254.105 303.912 265.885C303.912 265.885 301.949 280.938 294.095 286.173C286.242 291.409 282.97 293.372 280.352 302.534C278.106 310.396 285.256 309.459 282.97 317.587C279.927 328.404 264.956 350.325 263.336 354.311C260.5 361.292 253.317 366.015 253.317 366.015C251.572 368.851 242.982 366.932 247.171 347.037C249.843 334.341 237.038 327.802 236.504 323.477C235.992 319.329 230.769 315.403 222.761 305.152C209.672 288.398 215.998 276.138 217.525 272.43C217.525 272.43 221.486 263.422 217.525 254.835C213.888 246.952 208.917 243.691 201.164 239.783C196.617 237.491 188.729 235.856 188.729 235.856ZM376.518 221.458C377.229 213.128 377.399 204.974 376.995 197.135C375.939 176.618 373.207 158.405 368.337 142.925L353.65 154.051C351.25 153.832 345.404 158.632 341.215 179.574C337.027 200.516 347.76 210.551 353.65 212.951L376.518 221.458Z" fill="#90D307"/>
<path d="M188.729 112.651V375.7C170.881 383.698 151.124 388.175 130.293 388.175C122.056 388.175 114.117 386.98 106.477 384.712C70.5449 374.147 41.2372 340.661 22.614 300.85C18.4955 292.135 14.9141 283.122 11.9296 273.93C3.3348 248.025 -0.783702 221.046 0.469853 197.05C4.70788 114.68 35.925 69.4957 124.145 89.0729C145.096 93.7286 162.346 101.19 177.865 107.995C181.566 109.606 185.207 111.158 188.729 112.651Z" fill="#EA3A22"/>
<path d="M130.161 14.5046L133.466 2.08479C133.641 1.42056 134.437 1.00372 135.603 0.875869C136.764 0.760121 138.314 0.87133 139.883 1.45158C139.883 1.45158 140.344 1.63088 141.208 1.96753C141.639 2.13775 142.169 2.34806 142.794 2.59393C143.407 2.86854 144.112 3.18401 144.901 3.53731C148.056 4.93536 152.482 7.16256 157.388 10.439C162.307 13.6838 167.67 18.03 172.648 23.3831C177.676 28.6863 182.212 35.0562 185.872 41.8437C189.458 48.6759 192.17 55.9211 193.729 62.9196C195.356 69.9038 195.942 76.5809 195.886 82.2654C195.864 87.9552 195.264 92.6539 194.688 95.8956C194.548 96.7066 194.422 97.4306 194.313 98.0608C194.176 98.6842 194.059 99.216 193.964 99.6465C193.77 100.506 193.668 100.964 193.668 100.964C193.407 102.531 192.75 103.858 192.086 104.754C191.409 105.65 190.66 106.101 189.996 105.924L186.25 104.927C185.587 104.749 185.122 104.015 184.902 102.995C184.672 101.97 184.75 100.671 184.978 99.2697C184.978 99.2697 185.038 98.8536 185.149 98.0736C185.204 97.684 185.272 97.2037 185.35 96.6385C185.403 96.0704 185.462 95.4175 185.53 94.6859C185.816 91.7696 186.013 87.5731 185.637 82.5907C185.293 77.612 184.317 71.8511 182.438 65.9563C180.624 60.0434 177.804 54.0547 174.331 48.5344C170.779 43.0572 166.58 38.0498 162.078 34.01C157.622 29.921 152.968 26.7322 148.776 24.4271C144.597 22.094 140.908 20.5923 138.289 19.6792C137.637 19.4454 137.055 19.2374 136.548 19.0566C136.033 18.9007 135.594 18.7676 135.238 18.6602C134.528 18.4468 134.149 18.3333 134.149 18.3333C132.899 17.862 131.805 17.3075 131.084 16.6115C130.359 15.9284 129.985 15.1688 130.161 14.5046Z" fill="#734B5A"/>
<path d="M312.345 8.61297C312.285 12.015 311.927 15.2983 311.33 18.3418C300.586 77.2544 208.128 78.2106 208.128 78.2106C208.068 78.1508 208.068 77.9715 208.188 77.6727C209.084 71.2862 225.975 12.3729 279.635 6.22539C285.724 5.50896 292.29 5.50896 299.333 6.34492C303.511 6.76252 307.809 7.53795 312.345 8.61297Z" fill="#90D307"/>
</svg>
