<svg width="1925" height="763" viewBox="0 0 1925 763" fill="none" xmlns="http://www.w3.org/2000/svg">
<g clip-path="url(#clip0_45_2)">
<rect width="1925" height="763" fill="white"/>
<path d="M157.986 244.07V294.98H257.592V360.942H157.986V417.164H270.873V486.667H71.2174V174.567H270.873V244.07H157.986ZM325.259 329.953C325.259 299.259 331.605 271.96 344.295 248.054C357.281 223.854 375.579 205.113 399.189 191.832C422.8 178.256 449.952 171.468 480.646 171.468C519.603 171.468 552.362 181.945 578.924 202.899C605.486 223.558 622.603 251.743 630.277 287.454H536.868C531.26 275.649 523.439 266.648 513.405 260.45C503.666 254.252 492.303 251.153 479.317 251.153C459.249 251.153 443.164 258.384 431.064 272.845C419.258 287.012 413.356 306.047 413.356 329.953C413.356 354.154 419.258 373.485 431.064 387.946C443.164 402.113 459.249 409.196 479.317 409.196C492.303 409.196 503.666 406.097 513.405 399.899C523.439 393.701 531.26 384.7 536.868 372.895H630.277C622.603 408.605 605.486 436.938 578.924 457.892C552.362 478.551 519.603 488.881 480.646 488.881C449.952 488.881 422.8 482.241 399.189 468.96C375.579 455.384 357.281 436.643 344.295 412.737C331.605 388.537 325.259 360.942 325.259 329.953Z" fill="black"/>
<path fill-rule="evenodd" clip-rule="evenodd" d="M853.729 333.781V210.677C857.052 209.274 860.435 207.797 863.901 206.283C879.639 199.41 897.081 191.792 918.317 187.073C923.604 185.898 928.687 184.956 933.572 184.241C935.753 186.968 939.462 194.776 936.844 204.2C927.42 222.001 920.566 227.324 918.317 227.76V247.394H901.504L906.74 282.734L894.305 277.498C883.18 275.971 861.976 276.189 866.164 289.278C870.352 302.367 891.469 321.782 901.504 329.854H942.734C949.497 327.454 964.2 326.451 968.912 341.634C973.624 356.817 970.875 371.52 968.912 376.974L962.367 391.372C960.404 389.845 954.514 391.241 946.661 409.042C938.807 426.843 931.172 445.254 928.336 452.235L901.504 465.324C899.759 468.16 897.316 468.858 901.504 448.963C904.177 436.267 906.508 431.588 905.974 427.263C905.462 423.115 902.314 419.293 894.305 409.042C881.216 392.288 880.998 380.682 882.525 376.974V352.759L866.164 337.707L853.729 333.781ZM1041.52 319.383C1042.23 311.053 1042.4 302.899 1041.99 295.059C1040.94 274.542 1038.21 256.33 1033.34 240.849L1018.65 251.975C1016.25 251.757 1010.4 256.556 1006.22 277.498C1002.03 298.441 1012.76 308.475 1018.65 310.875L1041.52 319.383Z" fill="#4FA661"/>
<path fill-rule="evenodd" clip-rule="evenodd" d="M853.729 333.781V210.677C857.052 209.274 860.435 207.797 863.901 206.283C879.639 199.41 897.081 191.792 918.317 187.073C923.604 185.898 928.687 184.956 933.572 184.241C935.753 186.968 939.462 194.776 936.844 204.2C927.42 222.001 920.566 227.324 918.317 227.76V247.394H901.504L906.74 282.734L894.305 277.498C883.18 275.971 861.976 276.189 866.164 289.278C870.352 302.367 891.469 321.782 901.504 329.854H942.734C949.497 327.454 964.2 326.451 968.912 341.634C973.624 356.817 970.875 371.52 968.912 376.974L962.367 391.372C960.404 389.845 954.514 391.241 946.661 409.042C938.807 426.843 931.172 445.254 928.336 452.235L901.504 465.324C899.759 468.16 897.316 468.858 901.504 448.963C904.177 436.267 906.508 431.588 905.974 427.263C905.462 423.115 902.314 419.293 894.305 409.042C881.216 392.288 880.998 380.682 882.525 376.974V352.759L866.164 337.707L853.729 333.781ZM1041.52 319.383C1042.23 311.053 1042.4 302.899 1041.99 295.059C1040.94 274.542 1038.21 256.33 1033.34 240.849L1018.65 251.975C1016.25 251.757 1010.4 256.556 1006.22 277.498C1002.03 298.441 1012.76 308.475 1018.65 310.875L1041.52 319.383Z" fill="#0068C8"/>
<path d="M853.729 473.686C871.574 481.715 891.353 486.17 912.171 486.17C983.495 486.17 1035.03 395.438 1041.52 319.383L1018.65 310.875C1012.76 308.475 1002.03 298.441 1006.22 277.498C1010.4 256.556 1016.25 251.757 1018.65 251.975L1033.34 240.849C1019.83 197.917 989.87 176.001 933.572 184.241C935.753 186.968 939.462 194.776 936.844 204.2C927.42 222.001 920.566 227.324 918.317 227.76V247.394H901.504L906.74 282.734L894.305 277.498C883.18 275.971 861.976 276.189 866.164 289.278C870.352 302.367 891.469 321.782 901.504 329.854H942.734C949.497 327.454 964.2 326.451 968.912 341.634C973.624 356.817 970.875 371.52 968.912 376.974L962.367 391.372C960.404 389.845 954.514 391.241 946.661 409.042C938.807 426.843 931.172 445.254 928.336 452.235L901.504 465.324C899.759 468.16 897.316 468.858 901.504 448.963C904.177 436.267 906.508 431.588 905.974 427.263C905.462 423.115 902.314 419.293 894.305 409.042C881.216 392.288 880.998 380.682 882.525 376.974V352.759L866.164 337.707L853.729 333.781V473.686Z" fill="#4FA661"/>
<path d="M853.729 473.686C871.574 481.715 891.353 486.17 912.171 486.17C983.495 486.17 1035.03 395.438 1041.52 319.383L1018.65 310.875C1012.76 308.475 1002.03 298.441 1006.22 277.498C1010.4 256.556 1016.25 251.757 1018.65 251.975L1033.34 240.849C1019.83 197.917 989.87 176.001 933.572 184.241C935.753 186.968 939.462 194.776 936.844 204.2C927.42 222.001 920.566 227.324 918.317 227.76V247.394H901.504L906.74 282.734L894.305 277.498C883.18 275.971 861.976 276.189 866.164 289.278C870.352 302.367 891.469 321.782 901.504 329.854H942.734C949.497 327.454 964.2 326.451 968.912 341.634C973.624 356.817 970.875 371.52 968.912 376.974L962.367 391.372C960.404 389.845 954.514 391.241 946.661 409.042C938.807 426.843 931.172 445.254 928.336 452.235L901.504 465.324C899.759 468.16 897.316 468.858 901.504 448.963C904.177 436.267 906.508 431.588 905.974 427.263C905.462 423.115 902.314 419.293 894.305 409.042C881.216 392.288 880.998 380.682 882.525 376.974V352.759L866.164 337.707L853.729 333.781V473.686Z" fill="#0068C8"/>
<path fill-rule="evenodd" clip-rule="evenodd" d="M853.729 333.856V210.752C857.052 209.35 860.435 207.872 863.901 206.359C879.639 199.485 897.081 191.868 918.317 187.149C923.604 185.974 928.687 185.032 933.572 184.317C935.753 187.043 939.462 194.852 936.844 204.276C927.42 222.077 926.778 209.254 923.755 220.562C921.775 227.969 928.991 230.379 928.991 240.925C928.991 251.472 924.189 261.473 918.317 264.41C905.838 270.649 915.454 299.983 901.504 299.75C896.236 299.662 898.886 279.101 887.761 277.574C876.635 276.047 861.976 276.265 866.164 289.354C870.352 302.443 891.469 321.858 901.504 329.93C911.539 338.001 942.734 329.93 942.734 329.93C949.497 327.53 970.09 322.6 974.802 337.783C979.514 352.966 970.875 352.105 968.912 363.885C968.912 363.885 966.949 378.938 959.095 384.173C951.242 389.409 947.97 391.372 945.352 400.534C943.106 408.396 950.256 407.459 947.97 415.587C944.927 426.404 929.956 448.325 928.336 452.311C925.5 459.292 918.317 464.015 918.317 464.015C916.572 466.851 907.982 464.932 912.171 445.037C914.843 432.341 902.038 425.802 901.504 421.477C900.992 417.329 895.769 413.403 887.761 403.152C874.672 386.398 880.998 374.138 882.525 370.43C882.525 370.43 886.486 361.422 882.525 352.835C878.888 344.952 873.917 341.691 866.164 337.783C861.617 335.491 853.729 333.856 853.729 333.856ZM1041.52 319.458C1042.23 311.128 1042.4 302.974 1041.99 295.135C1040.94 274.618 1038.21 256.405 1033.34 240.925L1018.65 252.051C1016.25 251.832 1010.4 256.632 1006.22 277.574C1002.03 298.516 1012.76 308.551 1018.65 310.951L1041.52 319.458Z" fill="#4FA661"/>
<path fill-rule="evenodd" clip-rule="evenodd" d="M853.729 333.856V210.752C857.052 209.35 860.435 207.872 863.901 206.359C879.639 199.485 897.081 191.868 918.317 187.149C923.604 185.974 928.687 185.032 933.572 184.317C935.753 187.043 939.462 194.852 936.844 204.276C927.42 222.077 926.778 209.254 923.755 220.562C921.775 227.969 928.991 230.379 928.991 240.925C928.991 251.472 924.189 261.473 918.317 264.41C905.838 270.649 915.454 299.983 901.504 299.75C896.236 299.662 898.886 279.101 887.761 277.574C876.635 276.047 861.976 276.265 866.164 289.354C870.352 302.443 891.469 321.858 901.504 329.93C911.539 338.001 942.734 329.93 942.734 329.93C949.497 327.53 970.09 322.6 974.802 337.783C979.514 352.966 970.875 352.105 968.912 363.885C968.912 363.885 966.949 378.938 959.095 384.173C951.242 389.409 947.97 391.372 945.352 400.534C943.106 408.396 950.256 407.459 947.97 415.587C944.927 426.404 929.956 448.325 928.336 452.311C925.5 459.292 918.317 464.015 918.317 464.015C916.572 466.851 907.982 464.932 912.171 445.037C914.843 432.341 902.038 425.802 901.504 421.477C900.992 417.329 895.769 413.403 887.761 403.152C874.672 386.398 880.998 374.138 882.525 370.43C882.525 370.43 886.486 361.422 882.525 352.835C878.888 344.952 873.917 341.691 866.164 337.783C861.617 335.491 853.729 333.856 853.729 333.856ZM1041.52 319.458C1042.23 311.128 1042.4 302.974 1041.99 295.135C1040.94 274.618 1038.21 256.405 1033.34 240.925L1018.65 252.051C1016.25 251.832 1010.4 256.632 1006.22 277.574C1002.03 298.516 1012.76 308.551 1018.65 310.951L1041.52 319.458Z" fill="#90D307"/>
<path d="M853.729 210.651V473.7C835.881 481.698 816.124 486.175 795.293 486.175C787.056 486.175 779.117 484.98 771.477 482.712C735.545 472.147 706.237 438.661 687.614 398.85C683.495 390.135 679.914 381.122 676.93 371.93C668.335 346.025 664.216 319.046 665.47 295.05C669.708 212.68 700.925 167.496 789.145 187.073C810.096 191.729 827.346 199.19 842.865 205.995C846.566 207.606 850.207 209.158 853.729 210.651Z" fill="#EA3A22"/>
<path d="M795.161 112.505L798.466 100.085C798.641 99.4206 799.437 99.0037 800.603 98.8759C801.764 98.7601 803.314 98.8713 804.883 99.4516C804.883 99.4516 805.344 99.6309 806.208 99.9675C806.639 100.138 807.169 100.348 807.794 100.594C808.407 100.869 809.112 101.184 809.901 101.537C813.056 102.935 817.482 105.163 822.388 108.439C827.307 111.684 832.67 116.03 837.648 121.383C842.676 126.686 847.212 133.056 850.872 139.844C854.458 146.676 857.17 153.921 858.729 160.92C860.356 167.904 860.942 174.581 860.886 180.265C860.864 185.955 860.264 190.654 859.688 193.896C859.548 194.707 859.422 195.431 859.313 196.061C859.176 196.684 859.059 197.216 858.964 197.646C858.77 198.506 858.668 198.964 858.668 198.964C858.407 200.531 857.75 201.858 857.086 202.754C856.409 203.65 855.66 204.101 854.996 203.924L851.25 202.927C850.587 202.749 850.122 202.015 849.902 200.995C849.672 199.97 849.75 198.671 849.978 197.27C849.978 197.27 850.038 196.854 850.149 196.074C850.204 195.684 850.272 195.204 850.35 194.639C850.403 194.07 850.462 193.418 850.53 192.686C850.816 189.77 851.013 185.573 850.637 180.591C850.293 175.612 849.317 169.851 847.438 163.956C845.624 158.043 842.804 152.055 839.331 146.534C835.779 141.057 831.58 136.05 827.078 132.01C822.622 127.921 817.968 124.732 813.776 122.427C809.597 120.094 805.908 118.592 803.289 117.679C802.637 117.445 802.055 117.237 801.548 117.057C801.033 116.901 800.594 116.768 800.238 116.66C799.528 116.447 799.149 116.333 799.149 116.333C797.899 115.862 796.805 115.307 796.084 114.611C795.359 113.928 794.985 113.169 795.161 112.505Z" fill="#734B5A"/>
<path d="M977.345 106.613C977.285 110.015 976.927 113.298 976.33 116.342C965.586 175.254 873.128 176.211 873.128 176.211C873.068 176.151 873.068 175.972 873.188 175.673C874.084 169.286 890.975 110.373 944.635 104.225C950.724 103.509 957.29 103.509 964.333 104.345C968.511 104.763 972.809 105.538 977.345 106.613Z" fill="#90D307"/>
<mask id="path-7-outside-1_45_2" maskUnits="userSpaceOnUse" x="927" y="371" width="145" height="143" fill="black">
<rect fill="white" x="927" y="371" width="145" height="143"/>
<path d="M952.024 442.319C952.024 433.097 953.932 425.041 957.749 418.151C961.565 411.26 966.865 405.96 973.649 402.25C980.539 398.54 988.384 396.685 997.182 396.685C1008.52 396.685 1018.06 399.812 1025.8 406.066C1033.54 412.214 1038.52 420.854 1040.75 431.984H1007.68C1005.77 426.154 1002.06 423.239 996.546 423.239C992.624 423.239 989.497 424.882 987.165 428.168C984.939 431.348 983.826 436.065 983.826 442.319C983.826 448.574 984.939 453.344 987.165 456.63C989.497 459.916 992.624 461.559 996.546 461.559C1002.16 461.559 1005.87 458.644 1007.68 452.814H1040.75C1038.52 463.838 1033.54 472.477 1025.8 478.732C1018.06 484.986 1008.52 488.113 997.182 488.113C988.384 488.113 980.539 486.258 973.649 482.548C966.865 478.838 961.565 473.538 957.749 466.647C953.932 459.757 952.024 451.648 952.024 442.319Z"/>
</mask>
<path d="M952.024 442.319C952.024 433.097 953.932 425.041 957.749 418.151C961.565 411.26 966.865 405.96 973.649 402.25C980.539 398.54 988.384 396.685 997.182 396.685C1008.52 396.685 1018.06 399.812 1025.8 406.066C1033.54 412.214 1038.52 420.854 1040.75 431.984H1007.68C1005.77 426.154 1002.06 423.239 996.546 423.239C992.624 423.239 989.497 424.882 987.165 428.168C984.939 431.348 983.826 436.065 983.826 442.319C983.826 448.574 984.939 453.344 987.165 456.63C989.497 459.916 992.624 461.559 996.546 461.559C1002.16 461.559 1005.87 458.644 1007.68 452.814H1040.75C1038.52 463.838 1033.54 472.477 1025.8 478.732C1018.06 484.986 1008.52 488.113 997.182 488.113C988.384 488.113 980.539 486.258 973.649 482.548C966.865 478.838 961.565 473.538 957.749 466.647C953.932 459.757 952.024 451.648 952.024 442.319Z" fill="white"/>
<path d="M957.749 418.151L979.618 430.263L979.618 430.263L957.749 418.151ZM973.649 402.25L961.797 380.238L961.725 380.277L961.654 380.316L973.649 402.25ZM1025.8 406.066L1010.09 425.51L1010.17 425.575L1010.25 425.64L1025.8 406.066ZM1040.75 431.984V456.984H1071.24L1065.26 427.081L1040.75 431.984ZM1007.68 431.984L983.916 439.76L989.553 456.984H1007.68V431.984ZM987.165 428.168L966.777 413.699L966.73 413.765L966.684 413.831L987.165 428.168ZM987.165 456.63L966.467 470.651L966.619 470.877L966.777 471.099L987.165 456.63ZM1007.68 452.814V427.814H989.237L983.791 445.431L1007.68 452.814ZM1040.75 452.814L1065.25 457.762L1071.3 427.814H1040.75V452.814ZM1025.8 478.732L1041.52 498.175L1041.52 498.175L1025.8 478.732ZM973.649 482.548L961.654 504.482L961.725 504.521L961.797 504.56L973.649 482.548ZM957.749 466.647L979.618 454.535L979.618 454.535L957.749 466.647ZM977.024 442.319C977.024 436.607 978.181 432.858 979.618 430.263L935.879 406.038C929.684 417.224 927.024 429.587 927.024 442.319H977.024ZM979.618 430.263C981.185 427.434 983.097 425.578 985.644 424.184L961.654 380.316C950.633 386.343 941.944 395.086 935.879 406.038L979.618 430.263ZM985.502 424.262C988.316 422.746 991.999 421.685 997.182 421.685V371.685C984.768 371.685 972.763 374.333 961.797 380.238L985.502 424.262ZM997.182 421.685C1003.65 421.685 1007.41 423.348 1010.09 425.51L1041.52 386.623C1028.72 376.276 1013.4 371.685 997.182 371.685V421.685ZM1010.25 425.64C1012.68 427.572 1014.99 430.642 1016.24 436.887L1065.26 427.081C1062.06 411.066 1054.4 396.857 1041.35 386.492L1010.25 425.64ZM1040.75 406.984H1007.68V456.984H1040.75V406.984ZM1031.44 424.208C1029.4 417.991 1025.66 411.072 1018.91 405.767C1011.93 400.287 1003.92 398.239 996.546 398.239V448.239C994.683 448.239 991.282 447.648 988.017 445.083C984.976 442.694 984.043 440.147 983.916 439.76L1031.44 424.208ZM996.546 398.239C984.263 398.239 973.645 404.022 966.777 413.699L1007.55 442.637C1006.76 443.747 1005.27 445.352 1002.89 446.602C1000.48 447.865 998.182 448.239 996.546 448.239V398.239ZM966.684 413.831C960.214 423.074 958.826 433.808 958.826 442.319H1008.83C1008.83 441.489 1008.86 440.871 1008.91 440.44C1008.95 440.008 1009 439.819 1008.99 439.832C1008.99 439.845 1008.92 440.117 1008.73 440.577C1008.53 441.043 1008.2 441.719 1007.65 442.504L966.684 413.831ZM958.826 442.319C958.826 450.92 960.248 461.472 966.467 470.651L1007.86 442.609C1008.82 444.015 1009.02 444.986 1009.01 444.907C1009 444.883 1008.95 444.668 1008.91 444.221C1008.86 443.775 1008.83 443.149 1008.83 442.319H958.826ZM966.777 471.099C973.645 480.776 984.263 486.559 996.546 486.559V436.559C998.182 436.559 1000.48 436.932 1002.89 438.196C1005.27 439.446 1006.76 441.051 1007.55 442.161L966.777 471.099ZM996.546 486.559C1003.85 486.559 1011.93 484.576 1018.99 479.031C1025.86 473.629 1029.6 466.55 1031.56 460.196L983.791 445.431C983.953 444.908 984.931 442.202 988.097 439.715C991.445 437.084 994.861 436.559 996.546 436.559V486.559ZM1007.68 477.814H1040.75V427.814H1007.68V477.814ZM1016.24 447.866C1015.01 453.971 1012.71 457.171 1010.09 459.288L1041.52 498.175C1054.37 487.784 1062.04 473.705 1065.25 457.762L1016.24 447.866ZM1010.09 459.288C1007.41 461.45 1003.65 463.113 997.182 463.113V513.113C1013.4 513.113 1028.72 508.522 1041.52 498.175L1010.09 459.288ZM997.182 463.113C991.999 463.113 988.316 462.051 985.502 460.536L961.797 504.56C972.763 510.465 984.768 513.113 997.182 513.113V463.113ZM985.644 460.614C983.097 459.22 981.185 457.363 979.618 454.535L935.879 478.76C941.944 489.712 950.633 498.455 961.654 504.482L985.644 460.614ZM979.618 454.535C978.204 451.98 977.024 448.193 977.024 442.319H927.024C927.024 455.103 929.661 467.534 935.879 478.76L979.618 454.535Z" fill="white" mask="url(#path-7-outside-1_45_2)"/>
<path d="M951.901 441.319C951.901 432.097 953.81 424.041 957.626 417.151C961.442 410.26 966.742 404.96 973.526 401.25C980.416 397.54 988.261 395.685 997.059 395.685C1008.4 395.685 1017.94 398.812 1025.68 405.066C1033.42 411.214 1038.4 419.854 1040.63 430.984H1007.55C1005.65 425.154 1001.94 422.239 996.423 422.239C992.501 422.239 989.374 423.882 987.042 427.168C984.816 430.348 983.703 435.065 983.703 441.319C983.703 447.574 984.816 452.344 987.042 455.63C989.374 458.916 992.501 460.559 996.423 460.559C1002.04 460.559 1005.75 457.644 1007.55 451.814H1040.63C1038.4 462.838 1033.42 471.477 1025.68 477.732C1017.94 483.986 1008.4 487.113 997.059 487.113C988.261 487.113 980.416 485.258 973.526 481.548C966.742 477.838 961.442 472.538 957.626 465.647C953.81 458.757 951.901 450.648 951.901 441.319ZM1085.53 487.113C1076.63 487.113 1068.63 485.258 1061.52 481.548C1054.53 477.838 1049.02 472.538 1044.99 465.647C1040.96 458.757 1038.94 450.648 1038.94 441.319C1038.94 432.097 1040.96 424.041 1044.99 417.151C1049.12 410.26 1054.69 404.96 1061.68 401.25C1068.78 397.54 1076.79 395.685 1085.69 395.685C1094.6 395.685 1102.55 397.54 1109.54 401.25C1116.65 404.96 1122.21 410.26 1126.24 417.151C1130.37 424.041 1132.44 432.097 1132.44 441.319C1132.44 450.542 1130.37 458.651 1126.24 465.647C1122.21 472.538 1116.65 477.838 1109.54 481.548C1102.44 485.258 1094.44 487.113 1085.53 487.113ZM1085.53 460.082C1089.88 460.082 1093.48 458.492 1096.35 455.312C1099.31 452.026 1100.8 447.362 1100.8 441.319C1100.8 435.277 1099.31 430.666 1096.35 427.486C1093.48 424.306 1089.93 422.716 1085.69 422.716C1081.45 422.716 1077.9 424.306 1075.04 427.486C1072.18 430.666 1070.75 435.277 1070.75 441.319C1070.75 447.468 1072.12 452.132 1074.88 455.312C1077.64 458.492 1081.19 460.082 1085.53 460.082ZM1252.13 396.003C1263.37 396.003 1272.17 399.395 1278.53 406.179C1284.99 412.963 1288.22 422.239 1288.22 434.005V486H1257.06V438.139C1257.06 433.369 1255.73 429.659 1253.08 427.009C1250.43 424.359 1246.83 423.034 1242.27 423.034C1237.71 423.034 1234.11 424.359 1231.46 427.009C1228.81 429.659 1227.48 433.369 1227.48 438.139V486H1196.32V438.139C1196.32 433.369 1194.99 429.659 1192.34 427.009C1189.8 424.359 1186.25 423.034 1181.69 423.034C1177.03 423.034 1173.37 424.359 1170.72 427.009C1168.07 429.659 1166.74 433.369 1166.74 438.139V486H1135.58V396.798H1166.74V408.564C1169.5 404.748 1173.05 401.727 1177.4 399.501C1181.85 397.169 1186.94 396.003 1192.66 396.003C1199.23 396.003 1205.06 397.434 1210.15 400.296C1215.35 403.158 1219.43 407.186 1222.4 412.38C1225.58 407.504 1229.76 403.582 1234.96 400.614C1240.15 397.54 1245.88 396.003 1252.13 396.003ZM1412.31 396.003C1423.55 396.003 1432.34 399.395 1438.7 406.179C1445.17 412.963 1448.4 422.239 1448.4 434.005V486H1417.24V438.139C1417.24 433.369 1415.91 429.659 1413.26 427.009C1410.61 424.359 1407.01 423.034 1402.45 423.034C1397.89 423.034 1394.29 424.359 1391.64 427.009C1388.99 429.659 1387.66 433.369 1387.66 438.139V486H1356.5V438.139C1356.5 433.369 1355.17 429.659 1352.52 427.009C1349.98 424.359 1346.43 423.034 1341.87 423.034C1337.21 423.034 1333.55 424.359 1330.9 427.009C1328.25 429.659 1326.92 433.369 1326.92 438.139V486H1295.76V396.798H1326.92V408.564C1329.68 404.748 1333.23 401.727 1337.58 399.501C1342.03 397.169 1347.12 396.003 1352.84 396.003C1359.41 396.003 1365.24 397.434 1370.33 400.296C1375.53 403.158 1379.61 407.186 1382.58 412.38C1385.76 407.504 1389.94 403.582 1395.14 400.614C1400.33 397.54 1406.06 396.003 1412.31 396.003ZM1547.21 396.798V486H1515.88V473.28C1513.23 477.308 1509.58 480.594 1504.91 483.138C1500.25 485.576 1494.89 486.795 1488.85 486.795C1478.46 486.795 1470.25 483.403 1464.21 476.619C1458.27 469.728 1455.3 460.4 1455.3 448.634V396.798H1486.31V444.659C1486.31 449.747 1487.63 453.775 1490.28 456.743C1493.04 459.605 1496.64 461.036 1501.1 461.036C1505.65 461.036 1509.26 459.605 1511.91 456.743C1514.56 453.775 1515.88 449.747 1515.88 444.659V396.798H1547.21ZM1613.76 396.003C1624.04 396.003 1632.2 399.448 1638.25 406.338C1644.29 413.122 1647.31 422.345 1647.31 434.005V486H1616.14V438.139C1616.14 433.051 1614.82 429.076 1612.17 426.214C1609.52 423.246 1605.97 421.762 1601.52 421.762C1596.85 421.762 1593.19 423.246 1590.54 426.214C1587.89 429.076 1586.57 433.051 1586.57 438.139V486H1555.4V396.798H1586.57V409.518C1589.33 405.49 1593.04 402.257 1597.7 399.819C1602.36 397.275 1607.72 396.003 1613.76 396.003ZM1670.61 388.53C1665.1 388.53 1660.65 387.045 1657.25 384.077C1653.97 381.003 1652.33 377.187 1652.33 372.629C1652.33 367.965 1653.97 364.096 1657.25 361.022C1660.65 357.947 1665.1 356.41 1670.61 356.41C1676.02 356.41 1680.36 357.947 1683.65 361.022C1687.04 364.096 1688.74 367.965 1688.74 372.629C1688.74 377.187 1687.04 381.003 1683.65 384.077C1680.36 387.045 1676.02 388.53 1670.61 388.53ZM1686.03 396.798V486H1654.87V396.798H1686.03ZM1746.87 459.446V486H1733.36C1710.57 486 1699.17 474.711 1699.17 452.132V422.716H1688.2V396.798H1699.17V375.173H1730.5V396.798H1746.71V422.716H1730.5V452.609C1730.5 455.047 1731.03 456.796 1732.09 457.856C1733.25 458.916 1735.16 459.446 1737.81 459.446H1746.87ZM1847.67 396.798L1791.06 528.455H1757.19L1778.5 482.184L1741.93 396.798H1776.59L1795.35 447.362L1813.48 396.798H1847.67Z" fill="black"/>
</g>
<defs>
<clipPath id="clip0_45_2">
<rect width="1925" height="763" fill="white"/>
</clipPath>
</defs>
</svg>
