<svg width="551" height="551" viewBox="0 0 551 551" fill="none" xmlns="http://www.w3.org/2000/svg">
<path d="M316.433 100.861V460.258C415.678 460.258 496.134 379.803 496.134 280.56C496.134 181.316 415.678 100.861 316.433 100.861Z" fill="#4482C3"/>
<path d="M326.578 130.881C337.527 130.942 365.567 113.63 370.915 117.155C392.584 131.432 365.964 182.014 349.388 165.178C338.234 154.019 323.771 161.243 316.434 175.086V193.081C321.683 187.256 325.134 173.779 331.008 180.062C339.207 188.843 336.244 206.527 324.899 210.58C322.922 211.286 319.941 210.827 316.434 209.749V264.402C317.034 265.077 317.692 265.722 318.466 266.317C331.404 276.25 325.672 252.598 335.11 256.199C348.835 261.515 332.749 275.191 354.245 265.258C379.459 253.757 369.985 271.69 377.706 283.414C392.181 305.3 427.755 326.306 446.401 297.38C450.801 290.564 447.981 236.611 475.649 272.805C493.229 295.794 487.194 245.64 489.573 232.472C485.632 218.258 479.994 204.749 472.879 192.182C472.861 192.151 472.848 192.127 472.829 192.102C468.12 183.78 462.76 175.879 456.83 168.456C456.774 168.381 456.718 168.313 456.656 168.239C453.75 164.608 450.695 161.101 447.516 157.705C447.349 157.531 447.181 157.358 447.014 157.178C440.706 150.499 433.883 144.308 426.621 138.663C426.317 138.422 426.02 138.18 425.716 137.944C422.203 135.249 418.583 132.683 414.872 130.248C414.438 129.963 414.005 129.691 413.571 129.411C406.079 124.584 398.203 120.309 389.999 116.616C389.41 116.355 388.828 116.077 388.239 115.823C384.298 114.1 380.277 112.52 376.193 111.076C375.505 110.834 374.811 110.611 374.117 110.375C365.727 107.531 357.058 105.294 348.159 103.708C347.36 103.566 346.561 103.411 345.761 103.281C341.48 102.575 337.142 102.029 332.761 101.633C331.924 101.558 331.082 101.503 330.245 101.44C325.68 101.094 321.088 100.858 316.434 100.858V132.355C319.632 131.444 322.972 130.862 326.578 130.881Z" fill="#A4E869"/>
<path d="M330.19 459.682C332.644 459.496 335.092 459.273 337.514 458.988C338.679 458.851 339.844 458.703 341.003 458.541C343.444 458.206 345.867 457.822 348.272 457.389C349.263 457.209 350.267 457.047 351.252 456.856C354.598 456.199 357.919 455.474 361.198 454.631L366.006 423.079L390.792 410.686L396.989 379.703H353.613L340.718 361.622L316.434 343.423V460.258C319.978 460.258 323.492 460.128 326.981 459.923C328.058 459.862 329.118 459.762 330.19 459.682Z" fill="#A4E869"/>
<path d="M138.13 280.984C138.13 380.593 218.847 461.31 318.456 461.31L317.883 101.231C218.275 101.231 138.13 181.376 138.13 280.984Z" fill="#FFECB3"/>
<path d="M235.448 280.986C235.448 334.798 272.085 380.595 317.31 378.877L317.882 182.522C272.085 181.377 236.02 226.602 235.448 280.986Z" fill="#FFB300"/>
<path d="M154.159 280.984C154.159 190.535 227.434 117.26 317.883 117.26L317.883 101.231C218.275 101.231 137.557 181.948 137.557 281.557C137.557 381.165 218.275 461.882 317.883 461.882L317.883 445.854C227.434 444.709 154.159 371.433 154.159 280.984Z" fill="#F3D55B"/>
<path d="M268.652 289C264.072 289 244.036 280.413 244.036 280.413C244.036 280.413 264.072 271.826 268.652 271.826C273.232 271.826 276.666 275.261 276.666 279.84C276.666 285.565 273.232 289 268.652 289ZM293.268 207.138C293.268 202.558 289.833 199.123 285.253 199.123C280.674 199.123 269.224 207.138 269.224 207.138C269.224 207.138 281.246 215.725 285.253 215.152C289.261 214.58 293.268 211.717 293.268 207.138ZM293.268 354.833C293.268 350.253 289.833 346.819 285.253 346.819C280.674 346.819 269.224 354.833 269.224 354.833C269.224 354.833 281.246 363.42 285.253 362.848C289.833 362.848 293.268 359.413 293.268 354.833ZM277.239 305.601C277.239 301.022 273.804 297.587 269.224 297.587C264.645 297.587 244.608 306.174 244.608 306.174C244.608 306.174 264.645 314.761 269.224 314.761C273.232 314.188 277.239 310.181 277.239 305.601ZM277.239 256.369C277.239 251.79 273.804 248.355 269.224 248.355C264.645 248.355 244.608 256.942 244.608 256.942C244.608 256.942 264.645 265.529 269.224 265.529C273.232 264.956 277.239 260.949 277.239 256.369ZM284.681 231.754C284.681 227.174 281.246 223.739 276.666 223.739C272.087 223.739 252.05 232.326 252.05 232.326C252.05 232.326 272.087 240.913 276.666 240.913C281.246 239.768 284.681 236.333 284.681 231.754ZM284.681 330.217C284.681 325.637 281.246 322.203 276.666 322.203C272.087 322.203 252.05 330.79 252.05 330.79C252.05 330.79 272.087 339.377 276.666 339.377C281.246 338.232 285.253 334.224 284.681 330.217ZM317.884 280.985C317.884 276.406 314.449 272.971 309.869 272.971C305.29 272.971 285.253 281.558 285.253 281.558C285.253 281.558 305.29 290.145 309.869 290.145C314.449 289 317.884 285.565 317.884 280.985ZM317.884 256.942C317.884 252.362 314.449 248.927 309.869 248.927C305.289 248.927 285.253 257.514 285.253 257.514C285.253 257.514 305.29 266.101 309.869 266.101C313.876 264.384 317.884 260.377 317.884 256.942ZM317.884 305.029C317.884 300.449 314.449 297.014 309.869 297.014C305.29 297.014 285.253 305.601 285.253 305.601C285.253 305.601 305.29 314.188 309.869 314.188C313.876 313.616 317.884 309.608 317.884 305.029ZM317.884 330.217C317.884 325.637 314.449 322.203 309.869 322.203C305.29 322.203 293.84 330.217 293.84 330.217C293.84 330.217 305.862 338.804 309.869 338.232C314.449 338.232 317.884 334.797 317.884 330.217ZM317.884 346.246C313.304 346.246 301.855 354.261 301.855 354.261C301.855 354.261 313.876 362.848 317.884 363.42L317.884 346.246ZM317.884 231.754C317.884 227.174 314.449 223.739 309.869 223.739C305.289 223.739 293.84 231.754 293.84 231.754C293.84 231.754 305.862 240.34 309.869 239.768C314.449 239.768 317.884 236.333 317.884 231.754ZM317.884 198.551C313.304 198.551 301.855 206.565 301.855 206.565C301.855 206.565 313.876 215.152 317.884 214.58L317.884 198.551Z" fill="#F57F17"/>
</svg>
