<svg width="1802" height="664" viewBox="0 0 1802 664" fill="none" xmlns="http://www.w3.org/2000/svg">
<path d="M111.986 244.403V295.313H211.592V361.274H111.986V417.497H224.873V487H25.2174V174.899H224.873V244.403H111.986ZM279.259 330.286C279.259 299.592 285.605 272.292 298.295 248.387C311.281 224.186 329.579 205.445 353.189 192.164C376.8 178.588 403.952 171.8 434.646 171.8C473.603 171.8 506.362 182.278 532.924 203.232C559.486 223.891 576.603 252.076 584.277 287.787H490.868C485.26 275.982 477.439 266.98 467.405 260.782C457.666 254.585 446.303 251.486 433.317 251.486C413.249 251.486 397.164 258.716 385.064 273.178C373.258 287.344 367.356 306.38 367.356 330.286C367.356 354.486 373.258 373.817 385.064 388.279C397.164 402.445 413.249 409.528 433.317 409.528C446.303 409.528 457.666 406.429 467.405 400.232C477.439 394.034 485.26 385.032 490.868 373.227H584.277C576.603 408.938 559.486 437.27 532.924 458.225C506.362 478.884 473.603 489.213 434.646 489.213C403.952 489.213 376.8 482.573 353.189 469.292C329.579 455.716 311.281 436.975 298.295 413.07C285.605 388.869 279.259 361.274 279.259 330.286Z" fill="black"/>
<path d="M789.433 156.861V516.258C888.678 516.258 969.134 435.803 969.134 336.56C969.134 237.316 888.678 156.861 789.433 156.861Z" fill="#4482C3"/>
<path d="M799.578 186.881C810.527 186.942 838.567 169.63 843.915 173.155C865.584 187.432 838.964 238.014 822.388 221.178C811.234 210.019 796.771 217.243 789.434 231.086V249.081C794.683 243.256 798.134 229.779 804.008 236.062C812.207 244.843 809.244 262.527 797.899 266.58C795.922 267.286 792.941 266.827 789.434 265.749V320.402C790.034 321.077 790.692 321.722 791.466 322.317C804.404 332.25 798.672 308.598 808.11 312.199C821.835 317.515 805.749 331.191 827.245 321.258C852.459 309.757 842.985 327.69 850.706 339.414C865.181 361.3 900.755 382.306 919.401 353.38C923.801 346.564 920.981 292.611 948.649 328.805C966.229 351.794 960.194 301.64 962.573 288.472C958.632 274.258 952.994 260.749 945.879 248.182C945.861 248.151 945.848 248.127 945.829 248.102C941.12 239.78 935.76 231.879 929.83 224.456C929.774 224.381 929.718 224.313 929.656 224.239C926.75 220.608 923.695 217.101 920.516 213.705C920.349 213.531 920.181 213.358 920.014 213.178C913.706 206.499 906.883 200.308 899.621 194.663C899.317 194.422 899.02 194.18 898.716 193.944C895.203 191.249 891.583 188.683 887.872 186.248C887.438 185.963 887.005 185.691 886.571 185.411C879.079 180.584 871.203 176.309 862.999 172.616C862.41 172.355 861.828 172.077 861.239 171.823C857.298 170.1 853.277 168.52 849.193 167.076C848.505 166.834 847.811 166.611 847.117 166.375C838.727 163.531 830.058 161.294 821.159 159.708C820.36 159.566 819.561 159.411 818.761 159.281C814.48 158.575 810.142 158.029 805.761 157.633C804.924 157.558 804.082 157.503 803.245 157.44C798.68 157.094 794.088 156.858 789.434 156.858V188.355C792.632 187.444 795.972 186.862 799.578 186.881Z" fill="#A4E869"/>
<path d="M803.19 515.682C805.644 515.496 808.092 515.273 810.514 514.988C811.679 514.851 812.844 514.703 814.003 514.541C816.444 514.206 818.867 513.822 821.272 513.389C822.263 513.209 823.267 513.047 824.252 512.856C827.598 512.199 830.919 511.474 834.198 510.631L839.006 479.079L863.792 466.686L869.989 435.703H826.613L813.718 417.622L789.434 399.423V516.258C792.978 516.258 796.492 516.128 799.981 515.923C801.058 515.862 802.118 515.762 803.19 515.682Z" fill="#A4E869"/>
<path d="M611.13 336.984C611.13 436.593 691.847 517.31 791.456 517.31L790.883 157.231C691.275 157.231 611.13 237.376 611.13 336.984Z" fill="#FFECB3"/>
<path d="M708.448 336.986C708.448 390.798 745.085 436.595 790.31 434.877L790.882 238.522C745.085 237.377 709.02 282.602 708.448 336.986Z" fill="#FFB300"/>
<path d="M627.159 336.984C627.159 246.535 700.434 173.26 790.883 173.26L790.883 157.231C691.275 157.231 610.557 237.948 610.557 337.557C610.557 437.165 691.275 517.882 790.883 517.882L790.883 501.854C700.434 500.709 627.159 427.433 627.159 336.984Z" fill="#F3D55B"/>
<path d="M741.652 345C737.072 345 717.036 336.413 717.036 336.413C717.036 336.413 737.072 327.826 741.652 327.826C746.232 327.826 749.666 331.261 749.666 335.84C749.666 341.565 746.232 345 741.652 345ZM766.268 263.138C766.268 258.558 762.833 255.123 758.253 255.123C753.674 255.123 742.224 263.138 742.224 263.138C742.224 263.138 754.246 271.725 758.253 271.152C762.261 270.58 766.268 267.717 766.268 263.138ZM766.268 410.833C766.268 406.253 762.833 402.819 758.253 402.819C753.674 402.819 742.224 410.833 742.224 410.833C742.224 410.833 754.246 419.42 758.253 418.848C762.833 418.848 766.268 415.413 766.268 410.833ZM750.239 361.601C750.239 357.022 746.804 353.587 742.224 353.587C737.645 353.587 717.608 362.174 717.608 362.174C717.608 362.174 737.645 370.761 742.224 370.761C746.232 370.188 750.239 366.181 750.239 361.601ZM750.239 312.369C750.239 307.79 746.804 304.355 742.224 304.355C737.645 304.355 717.608 312.942 717.608 312.942C717.608 312.942 737.645 321.529 742.224 321.529C746.232 320.956 750.239 316.949 750.239 312.369ZM757.681 287.754C757.681 283.174 754.246 279.739 749.666 279.739C745.087 279.739 725.05 288.326 725.05 288.326C725.05 288.326 745.087 296.913 749.666 296.913C754.246 295.768 757.681 292.333 757.681 287.754ZM757.681 386.217C757.681 381.637 754.246 378.203 749.666 378.203C745.087 378.203 725.05 386.79 725.05 386.79C725.05 386.79 745.087 395.377 749.666 395.377C754.246 394.232 758.253 390.224 757.681 386.217ZM790.884 336.985C790.884 332.406 787.449 328.971 782.869 328.971C778.29 328.971 758.253 337.558 758.253 337.558C758.253 337.558 778.29 346.145 782.869 346.145C787.449 345 790.884 341.565 790.884 336.985ZM790.884 312.942C790.884 308.362 787.449 304.927 782.869 304.927C778.289 304.927 758.253 313.514 758.253 313.514C758.253 313.514 778.29 322.101 782.869 322.101C786.876 320.384 790.884 316.377 790.884 312.942ZM790.884 361.029C790.884 356.449 787.449 353.014 782.869 353.014C778.29 353.014 758.253 361.601 758.253 361.601C758.253 361.601 778.29 370.188 782.869 370.188C786.876 369.616 790.884 365.608 790.884 361.029ZM790.884 386.217C790.884 381.637 787.449 378.203 782.869 378.203C778.29 378.203 766.84 386.217 766.84 386.217C766.84 386.217 778.862 394.804 782.869 394.232C787.449 394.232 790.884 390.797 790.884 386.217ZM790.884 402.246C786.304 402.246 774.855 410.261 774.855 410.261C774.855 410.261 786.876 418.848 790.884 419.42L790.884 402.246ZM790.884 287.754C790.884 283.174 787.449 279.739 782.869 279.739C778.289 279.739 766.84 287.754 766.84 287.754C766.84 287.754 778.862 296.34 782.869 295.768C787.449 295.768 790.884 292.333 790.884 287.754ZM790.884 254.551C786.304 254.551 774.855 262.565 774.855 262.565C774.855 262.565 786.876 271.152 790.884 270.58L790.884 254.551Z" fill="#F57F17"/>
<mask id="path-9-outside-1_46_37" maskUnits="userSpaceOnUse" x="881" y="371.333" width="145" height="143" fill="black">
<rect fill="white" x="881" y="371.333" width="145" height="143"/>
<path d="M906.024 442.652C906.024 433.43 907.932 425.373 911.749 418.483C915.565 411.593 920.865 406.293 927.649 402.582C934.539 398.872 942.384 397.017 951.182 397.017C962.524 397.017 972.065 400.144 979.803 406.399C987.541 412.547 992.523 421.186 994.75 432.317H961.676C959.768 426.486 956.058 423.571 950.546 423.571C946.624 423.571 943.497 425.214 941.165 428.5C938.939 431.681 937.826 436.398 937.826 442.652C937.826 448.906 938.939 453.676 941.165 456.962C943.497 460.249 946.624 461.892 950.546 461.892C956.164 461.892 959.874 458.977 961.676 453.146H994.75C992.523 464.171 987.541 472.81 979.803 479.064C972.065 485.318 962.524 488.446 951.182 488.446C942.384 488.446 934.539 486.59 927.649 482.88C920.865 479.17 915.565 473.87 911.749 466.98C907.932 460.09 906.024 451.98 906.024 442.652Z"/>
</mask>
<path d="M906.024 442.652C906.024 433.43 907.932 425.373 911.749 418.483C915.565 411.593 920.865 406.293 927.649 402.582C934.539 398.872 942.384 397.017 951.182 397.017C962.524 397.017 972.065 400.144 979.803 406.399C987.541 412.547 992.523 421.186 994.75 432.317H961.676C959.768 426.486 956.058 423.571 950.546 423.571C946.624 423.571 943.497 425.214 941.165 428.5C938.939 431.681 937.826 436.398 937.826 442.652C937.826 448.906 938.939 453.676 941.165 456.962C943.497 460.249 946.624 461.892 950.546 461.892C956.164 461.892 959.874 458.977 961.676 453.146H994.75C992.523 464.171 987.541 472.81 979.803 479.064C972.065 485.318 962.524 488.446 951.182 488.446C942.384 488.446 934.539 486.59 927.649 482.88C920.865 479.17 915.565 473.87 911.749 466.98C907.932 460.09 906.024 451.98 906.024 442.652Z" fill="white"/>
<path d="M911.749 418.483L933.618 430.596L933.618 430.596L911.749 418.483ZM927.649 402.582L915.797 380.571L915.725 380.609L915.654 380.648L927.649 402.582ZM979.803 406.399L964.088 425.842L964.169 425.908L964.251 425.973L979.803 406.399ZM994.75 432.317V457.317H1025.24L1019.26 427.414L994.75 432.317ZM961.676 432.317L937.916 440.093L943.553 457.317H961.676V432.317ZM941.165 428.5L920.777 414.032L920.73 414.098L920.684 414.164L941.165 428.5ZM941.165 456.962L920.467 470.984L920.619 471.209L920.777 471.431L941.165 456.962ZM961.676 453.146V428.146H943.237L937.791 445.764L961.676 453.146ZM994.75 453.146L1019.25 458.094L1025.3 428.146H994.75V453.146ZM979.803 479.064L995.518 498.508L995.518 498.508L979.803 479.064ZM927.649 482.88L915.654 504.815L915.725 504.854L915.797 504.892L927.649 482.88ZM911.749 466.98L933.618 454.867L933.618 454.867L911.749 466.98ZM931.024 442.652C931.024 436.939 932.181 433.19 933.618 430.596L889.879 406.371C883.684 417.556 881.024 429.92 881.024 442.652H931.024ZM933.618 430.596C935.185 427.767 937.097 425.91 939.644 424.517L915.654 380.648C904.633 386.675 895.944 395.419 889.879 406.371L933.618 430.596ZM939.502 424.594C942.316 423.079 945.999 422.017 951.182 422.017V372.017C938.768 372.017 926.763 374.666 915.797 380.571L939.502 424.594ZM951.182 422.017C957.649 422.017 961.413 423.68 964.088 425.842L995.518 386.955C982.716 376.609 967.4 372.017 951.182 372.017V422.017ZM964.251 425.973C966.683 427.904 968.986 430.974 970.235 437.219L1019.26 427.414C1016.06 411.398 1008.4 397.189 995.355 386.825L964.251 425.973ZM994.75 407.317H961.676V457.317H994.75V407.317ZM985.436 424.541C983.402 418.324 979.66 411.404 972.908 406.1C965.933 400.619 957.921 398.571 950.546 398.571V448.571C948.683 448.571 945.282 447.981 942.017 445.416C938.976 443.026 938.043 440.479 937.916 440.093L985.436 424.541ZM950.546 398.571C938.263 398.571 927.645 404.354 920.777 414.032L961.552 442.969C960.764 444.08 959.267 445.684 956.887 446.935C954.483 448.198 952.182 448.571 950.546 448.571V398.571ZM920.684 414.164C914.214 423.407 912.826 434.141 912.826 442.652H962.826C962.826 441.821 962.863 441.203 962.907 440.773C962.95 440.34 962.995 440.152 962.992 440.165C962.989 440.178 962.924 440.45 962.73 440.91C962.533 441.375 962.195 442.052 961.645 442.837L920.684 414.164ZM912.826 442.652C912.826 451.253 914.248 461.804 920.467 470.984L961.863 442.941C962.815 444.348 963.025 445.319 963.006 445.239C963.001 445.216 962.953 445 962.908 444.553C962.863 444.108 962.826 443.482 962.826 442.652H912.826ZM920.777 471.431C927.645 481.109 938.263 486.892 950.546 486.892V436.892C952.182 436.892 954.483 437.265 956.887 438.528C959.267 439.779 960.764 441.383 961.552 442.494L920.777 471.431ZM950.546 486.892C957.849 486.892 965.93 484.909 972.988 479.363C979.863 473.961 983.598 466.883 985.561 460.529L937.791 445.764C937.953 445.24 938.931 442.534 942.097 440.047C945.445 437.417 948.861 436.892 950.546 436.892V486.892ZM961.676 478.146H994.75V428.146H961.676V478.146ZM970.244 448.198C969.011 454.304 966.709 457.503 964.088 459.621L995.518 498.508C1008.37 488.117 1016.04 474.038 1019.25 458.094L970.244 448.198ZM964.088 459.621C961.413 461.783 957.649 463.446 951.182 463.446V513.446C967.4 513.446 982.716 508.854 995.518 498.508L964.088 459.621ZM951.182 463.446C945.999 463.446 942.316 462.384 939.502 460.869L915.797 504.892C926.763 510.797 938.768 513.446 951.182 513.446V463.446ZM939.644 460.946C937.097 459.553 935.185 457.696 933.618 454.867L889.879 479.092C895.944 490.044 904.633 498.788 915.654 504.815L939.644 460.946ZM933.618 454.867C932.204 452.313 931.024 448.525 931.024 442.652H881.024C881.024 455.435 883.661 467.866 889.879 479.092L933.618 454.867Z" fill="white" mask="url(#path-9-outside-1_46_37)"/>
<path d="M905.901 441.652C905.901 432.43 907.81 424.373 911.626 417.483C915.442 410.593 920.742 405.293 927.526 401.582C934.416 397.872 942.261 396.017 951.059 396.017C962.401 396.017 971.942 399.144 979.68 405.399C987.418 411.547 992.401 420.186 994.627 431.317H961.553C959.645 425.486 955.935 422.571 950.423 422.571C946.501 422.571 943.374 424.214 941.042 427.5C938.816 430.681 937.703 435.398 937.703 441.652C937.703 447.906 938.816 452.676 941.042 455.962C943.374 459.249 946.501 460.892 950.423 460.892C956.041 460.892 959.751 457.977 961.553 452.146H994.627C992.401 463.171 987.418 471.81 979.68 478.064C971.942 484.318 962.401 487.446 951.059 487.446C942.261 487.446 934.416 485.59 927.526 481.88C920.742 478.17 915.442 472.87 911.626 465.98C907.81 459.09 905.901 450.98 905.901 441.652ZM1039.53 487.446C1030.63 487.446 1022.63 485.59 1015.52 481.88C1008.53 478.17 1003.02 472.87 998.987 465.98C994.959 459.09 992.945 450.98 992.945 441.652C992.945 432.43 994.959 424.373 998.987 417.483C1003.12 410.593 1008.69 405.293 1015.68 401.582C1022.78 397.872 1030.79 396.017 1039.69 396.017C1048.6 396.017 1056.55 397.872 1063.54 401.582C1070.65 405.293 1076.21 410.593 1080.24 417.483C1084.37 424.373 1086.44 432.43 1086.44 441.652C1086.44 450.874 1084.37 458.984 1080.24 465.98C1076.21 472.87 1070.65 478.17 1063.54 481.88C1056.44 485.59 1048.44 487.446 1039.53 487.446ZM1039.53 460.415C1043.88 460.415 1047.48 458.825 1050.35 455.644C1053.31 452.358 1054.8 447.694 1054.8 441.652C1054.8 435.61 1053.31 430.999 1050.35 427.818C1047.48 424.638 1043.93 423.048 1039.69 423.048C1035.45 423.048 1031.9 424.638 1029.04 427.818C1026.18 430.999 1024.75 435.61 1024.75 441.652C1024.75 447.8 1026.12 452.464 1028.88 455.644C1031.64 458.825 1035.19 460.415 1039.53 460.415ZM1206.13 396.335C1217.37 396.335 1226.17 399.727 1232.53 406.512C1238.99 413.296 1242.22 422.571 1242.22 434.338V486.333H1211.06V438.472C1211.06 433.702 1209.73 429.992 1207.08 427.341C1204.43 424.691 1200.83 423.366 1196.27 423.366C1191.71 423.366 1188.11 424.691 1185.46 427.341C1182.81 429.992 1181.48 433.702 1181.48 438.472V486.333H1150.32V438.472C1150.32 433.702 1148.99 429.992 1146.34 427.341C1143.8 424.691 1140.25 423.366 1135.69 423.366C1131.03 423.366 1127.37 424.691 1124.72 427.341C1122.07 429.992 1120.74 433.702 1120.74 438.472V486.333H1089.58V397.13H1120.74V408.897C1123.5 405.081 1127.05 402.06 1131.4 399.833C1135.85 397.501 1140.94 396.335 1146.66 396.335C1153.23 396.335 1159.06 397.766 1164.15 400.628C1169.35 403.491 1173.43 407.519 1176.4 412.713C1179.58 407.837 1183.76 403.915 1188.96 400.946C1194.15 397.872 1199.88 396.335 1206.13 396.335ZM1366.31 396.335C1377.55 396.335 1386.34 399.727 1392.7 406.512C1399.17 413.296 1402.4 422.571 1402.4 434.338V486.333H1371.24V438.472C1371.24 433.702 1369.91 429.992 1367.26 427.341C1364.61 424.691 1361.01 423.366 1356.45 423.366C1351.89 423.366 1348.29 424.691 1345.64 427.341C1342.99 429.992 1341.66 433.702 1341.66 438.472V486.333H1310.5V438.472C1310.5 433.702 1309.17 429.992 1306.52 427.341C1303.98 424.691 1300.43 423.366 1295.87 423.366C1291.21 423.366 1287.55 424.691 1284.9 427.341C1282.25 429.992 1280.92 433.702 1280.92 438.472V486.333H1249.76V397.13H1280.92V408.897C1283.68 405.081 1287.23 402.06 1291.58 399.833C1296.03 397.501 1301.12 396.335 1306.84 396.335C1313.41 396.335 1319.24 397.766 1324.33 400.628C1329.53 403.491 1333.61 407.519 1336.58 412.713C1339.76 407.837 1343.94 403.915 1349.14 400.946C1354.33 397.872 1360.06 396.335 1366.31 396.335ZM1501.21 397.13V486.333H1469.88V473.612C1467.23 477.64 1463.58 480.926 1458.91 483.47C1454.25 485.909 1448.89 487.128 1442.85 487.128C1432.46 487.128 1424.25 483.735 1418.21 476.951C1412.27 470.061 1409.3 460.733 1409.3 448.966V397.13H1440.31V444.991C1440.31 450.079 1441.63 454.107 1444.28 457.075C1447.04 459.938 1450.64 461.369 1455.1 461.369C1459.65 461.369 1463.26 459.938 1465.91 457.075C1468.56 454.107 1469.88 450.079 1469.88 444.991V397.13H1501.21ZM1567.76 396.335C1578.04 396.335 1586.2 399.78 1592.25 406.671C1598.29 413.455 1601.31 422.677 1601.31 434.338V486.333H1570.14V438.472C1570.14 433.384 1568.82 429.408 1566.17 426.546C1563.52 423.578 1559.97 422.094 1555.52 422.094C1550.85 422.094 1547.19 423.578 1544.54 426.546C1541.89 429.408 1540.57 433.384 1540.57 438.472V486.333H1509.4V397.13H1540.57V409.851C1543.33 405.823 1547.04 402.59 1551.7 400.151C1556.36 397.607 1561.72 396.335 1567.76 396.335ZM1624.61 388.862C1619.1 388.862 1614.65 387.378 1611.25 384.41C1607.97 381.336 1606.33 377.52 1606.33 372.961C1606.33 368.297 1607.97 364.428 1611.25 361.354C1614.65 358.28 1619.1 356.743 1624.61 356.743C1630.02 356.743 1634.36 358.28 1637.65 361.354C1641.04 364.428 1642.74 368.297 1642.74 372.961C1642.74 377.52 1641.04 381.336 1637.65 384.41C1634.36 387.378 1630.02 388.862 1624.61 388.862ZM1640.03 397.13V486.333H1608.87V397.13H1640.03ZM1700.87 459.779V486.333H1687.36C1664.57 486.333 1653.17 475.043 1653.17 452.464V423.048H1642.2V397.13H1653.17V375.506H1684.5V397.13H1700.71V423.048H1684.5V452.941C1684.5 455.379 1685.03 457.128 1686.09 458.189C1687.25 459.249 1689.16 459.779 1691.81 459.779H1700.87ZM1801.67 397.13L1745.06 528.787H1711.19L1732.5 482.516L1695.93 397.13H1730.59L1749.35 447.694L1767.48 397.13H1801.67Z" fill="black"/>
</svg>
